<?xml version="1.0" encoding="UTF-8" standalone="no"?>
<svg
   xmlns:dc="http://purl.org/dc/elements/1.1/"
   xmlns:cc="http://creativecommons.org/ns#"
   xmlns:rdf="http://www.w3.org/1999/02/22-rdf-syntax-ns#"
   xmlns:svg="http://www.w3.org/2000/svg"
   xmlns="http://www.w3.org/2000/svg"
   xmlns:sodipodi="http://sodipodi.sourceforge.net/DTD/sodipodi-0.dtd"
   xmlns:inkscape="http://www.inkscape.org/namespaces/inkscape"
   width="225pt"
   height="135pt"
   viewBox="0 0 225 135"
   version="1.1"
   id="svg3336"
   inkscape:version="0.91 r13725"
   sodipodi:docname="cin.svg"
   inkscape:export-filename="/tmp/cin2.png"
   inkscape:export-xdpi="327.67999"
   inkscape:export-ydpi="327.67999">
  <metadata
     id="metadata3382">
    <rdf:RDF>
      <cc:Work
         rdf:about="">
        <dc:format>image/svg+xml</dc:format>
        <dc:type
           rdf:resource="http://purl.org/dc/dcmitype/StillImage" />
        <dc:title></dc:title>
      </cc:Work>
    </rdf:RDF>
  </metadata>
  <defs
     id="defs3380" />
  <sodipodi:namedview
     pagecolor="#ffff63"
     bordercolor="#666666"
     borderopacity="1"
     objecttolerance="10"
     gridtolerance="10"
     guidetolerance="10"
     inkscape:pageopacity="0.09803922"
     inkscape:pageshadow="2"
     inkscape:window-width="1680"
     inkscape:window-height="953"
     id="namedview3378"
     showgrid="false"
     inkscape:zoom="2.7831723"
     inkscape:cx="94.653683"
     inkscape:cy="83.656396"
     inkscape:window-x="0"
     inkscape:window-y="27"
     inkscape:window-maximized="1"
     inkscape:current-layer="svg3336" />
  <path
     d="m 110.20907,91.416958 c 9.53,-2.67 20.23608,0.87969 29.32608,3.39969 16.4,4.78 31.54516,13.337582 46.01516,22.227582 6.93,4.61 15.19124,8.84453 20.81969,14.13577 -8.27211,1.43248 -16.19515,-5.53907 -24.42515,-8.30907 -7.52,-2.51 -14.49516,-6.90758 -22.20516,-8.84758 -11.5,-3.01 -23.01969,-4.22 -34.81969,-5.3 -3.88,0.02 -8.56665,-0.9882 -10.01665,3.5718 -0.85,1.58 0.73242,2.49454 1.65242,3.60454 6.39,5.77 10.94516,13.79031 17.79516,19.10031 l -32.70093,0 -3.391859,0.0152 c 0.44,-0.99 1.930929,-3.1185 2.360929,-4.0985 4.01,-2.68 5.36938,-6.14665 6.94938,-10.52665 0.36,0.39 0.56454,-1.97279 0.92454,-1.58279 -0.49,-2.66 0.25608,-2.77025 -0.12392,-5.44025 1.8,-7.11 4.46,-14.680002 1.84,-21.950002 z"
     id="path3364"
     inkscape:connector-curvature="0"
     style="fill:#7ab3e8"
     sodipodi:nodetypes="cccccccccccccccccc" />
  <path
     d="M 23.587891 0 C 20.825391 0.5125 18.387109 1.8875 16.974609 4.375 C 13.574609 4.525 10.187109 4.6246094 6.7871094 4.7246094 C 0.64960938 14.937109 7.2132812 26.262109 8.8007812 36.724609 C 6.9257812 45.312109 4.5496094 53.813281 3.0371094 62.488281 C 1.1246094 76.538281 0.675 90.713281 0 104.86328 L 0 108.73828 C 0.65 117.83828 0.12421875 127.13711 3.0742188 135.91211 C 10.224219 141.34961 17.925391 146.85 26.962891 148.4375 C 45.250391 152.85 64.224219 152.06172 82.824219 154.07422 C 82.949219 158.96172 83.050391 163.8625 83.150391 168.75 L 91.5 168.75 C 91.2 163.35 90.925781 157.94961 91.113281 152.53711 C 91.650781 141.87461 90.724609 131.18789 91.412109 120.52539 C 92.949609 120.41289 94.474219 120.28828 96.011719 120.17578 C 97.061719 126.78828 97.887109 133.49961 100.16211 139.84961 C 102.27461 146.09961 106.61328 151.35078 108.42578 157.73828 C 109.55078 160.51328 110.11172 164.18672 113.19922 165.51172 C 117.04922 167.27422 121.32422 167.80078 125.44922 168.55078 C 125.99922 167.31328 126.55039 166.07461 127.08789 164.84961 C 127.92539 162.79961 128.75039 160.77578 129.58789 158.73828 C 128.38789 157.80078 127.1875 156.85039 126 155.90039 C 127.5625 148.53789 124.22422 141.6375 122.82422 134.5625 C 127.17422 140.0875 131.75039 145.43828 136.65039 150.48828 C 137.10039 150.97578 138.01289 151.96172 138.46289 152.44922 C 137.85039 149.12422 137.25039 145.81211 136.77539 142.47461 C 134.42539 133.48711 129.93789 125.12539 129.02539 115.77539 C 128.85039 115.00039 128.51289 113.47539 128.33789 112.71289 C 130.97539 117.11289 131.08711 122.37461 132.03711 127.28711 C 133.82461 127.08711 135.59922 126.90039 137.38672 126.71289 C 137.18672 123.01289 136.95039 119.31211 136.90039 115.59961 C 137.43789 115.46211 138.52422 115.17461 139.07422 115.03711 C 150.98672 111.69961 162.83672 116.57461 174.19922 119.72461 C 194.69922 125.69961 213.4125 136.28789 231.5 147.40039 C 240.1625 153.16289 248.73789 159.11211 257.96289 163.97461 C 261.68789 165.67461 265.39961 167.4375 269.28711 168.75 L 280.53711 168.75 C 250.06211 153.4375 223.5875 130.93672 191.75 118.19922 C 179.8 113.21172 167.2 110.02422 154.6875 106.76172 C 148.525 105.27422 142.27578 107.08672 136.17578 108.01172 C 134.26328 92.711719 133.53828 77.125391 129.11328 62.275391 C 125.60078 49.712891 114.37578 40.6625 102.36328 36.6875 C 92.100781 34.375 83.737109 42.537891 73.974609 43.775391 C 65.137109 45.900391 54.786719 43.55 47.324219 49.875 C 40.299219 56.2 35.05 65.275391 35.3125 74.962891 C 35.4125 86.000391 37.400391 96.924609 39.837891 107.66211 C 42.425391 107.92461 45.050781 107.97422 47.613281 108.44922 C 48.213281 110.64922 48.413281 112.93828 48.863281 115.17578 C 43.338281 115.21328 37.825781 114.92539 32.300781 114.83789 C 31.113281 88.237891 31.4 61.6 30.375 35 C 29.575 29.2375 32.75 24.187891 34 18.775391 C 35.5 13.312891 35.9375 7.5125 34.8125 1.9375 C 32.7625 1.275 30.699219 0.625 28.636719 0 L 23.587891 0 z M 58.224609 103.01172 C 58.539382 103.42348 58.81604 103.85234 59.070312 104.28906 C 60.834734 106.81527 62.948043 109.07802 64.75 111.58789 C 66.6625 114.73789 70.386719 116.11289 72.386719 119.21289 C 67.274219 118.16289 62.225 116.88789 57.1875 115.52539 L 57.886719 115.26172 C 59.299219 114.66172 60.699219 114.02578 62.074219 113.36328 C 61.199538 110.2857 60.68407 107.06075 59.070312 104.28906 C 58.778478 103.87123 58.494267 103.44636 58.224609 103.01172 z "
     id="path3340"
     transform="scale(0.8,0.8)" />
  <path
     d="M 15.205316,7.6489078 C 17.735316,7.1889078 20.31,6.76 22.87,6.45 c -0.48,5.59 -2.13,10.98 -2.69,16.56 -1.82,3.36 -1.34,7.26 -1.38,10.93 0.18,21.18 0.46,42.37 1.14,63.54 8.56,0.16 17.11,0.55 25.64,1.15 6.81,1.52 13.63,3.47 20.69,2.87 0.05,5.34 0.63,10.68 0.13,16.02 l -0.12,-0.6 c -0.23,-1.19 -1.574679,-1.01761 -1.794679,-2.19761 -8.2,-0.61 -15.151468,-1.18615 -23.321468,-2.14615 -8.49,-1.03 -18.464679,-0.59 -26.524679,-3.87 -3.04,-1.29 -6.0899997,-5.14239 -6.2999997,-8.68239 -0.6,-7.269997 0.1038532,-14.951556 -0.086147,-22.231556 0.16,-7.56 -1.08,-15.93156 2.3500005,-22.99156 4.66,-10.37 5.47,-21.440734 4.03,-32.610734 -0.75,-4.83 1.222288,-9.691092 0.572288,-14.5410922 z"
     id="path3344"
     inkscape:connector-curvature="0"
     style="fill:#7ab3e8"
     sodipodi:nodetypes="ccccccccccccccccc" />
  <path
     d=" M 9.46 9.32 C 11.38 8.75 13.30 8.19 15.23 7.64 C 15.88 12.49 14.75 17.36 15.50 22.19 C 16.94 33.36 16.13 45.05 11.47 55.42 C 8.04 62.48 9.28 70.48 9.12 78.04 C 9.31 85.32 8.73 92.63 9.33 99.90 C 9.54 103.44 12.59 105.93 15.63 107.22 C 23.69 110.50 32.55 110.06 41.04 111.09 C 49.21 112.05 57.40 112.75 65.60 113.36 C 65.82 114.54 66.05 115.73 66.28 116.92 C 52.79 117.52 39.34 115.93 25.92 114.79 C 18.88 114.37 12.61 110.81 6.40 107.81 C 5.93 92.86 5.52 77.88 6.66 62.96 C 7.58 53.66 9.76 44.55 11.77 35.45 C 12.42 32.02 13.42 28.35 11.95 25.00 C 10.04 20.00 9.51 14.63 9.46 9.32 Z"
     id="path3346"
     fill="#4499c5" />
  <path
     d="m 66.97,36.88 c 4.16,-1.26 8.13,-4.77 12.67,-3.33 9.76,0.4 16.63,9.22 20.47,17.41 C 95.02,44.56 87.994221,38.876284 81.013395,33.64399 83.380613,38.082713 87.486823,47.097205 89.46,50.45 85.62,47.28 81.9,43.95 77.84,41.06 c 1.71,9.08 5.38,17.66 7.24,26.72 2.4,12.08 6.68,23.74 8.26,35.98 0.76,6.08 2.99,11.82 4.17,17.8 -1.82,-1.49 -4.27,-2.78 -4.71,-5.33 C 91.26,109.52 89.92,102.76 88.84,95.97 87.96,86.76 87.33,77.39 84.49,68.54 81.7,61.87 78.44,55.38 74.88,49.08 c -1.26,0.1 -2.53,0.2 -3.79,0.29 -2.57,-2.91 -4.32,-8.37 -9.06,-7.69 -4.98,0.6 -10.59,0.67 -14.8,3.71 -2.36,4.41 -2.77,9.6 -4.05,14.4 -2.53,2.74 -5.6,6.05 -4.56,10.14 1.72,7.67 4.34,15.17 7.69,22.28 l -0.56,0.21 c -1.03,0.3 -2.12,-0.09 -3.17,-0.12 0.15,-3.03 0.07,-6.07 -0.07,-9.1 C 40,83 37.5,82.77 34.99,82.58 33.4,73.47 30.69,64.19 32.72,54.91 34.44,49.65 37.47,44.4 42.34,41.52 50.29,38.8 59.16,40.3 66.97,36.88 Z"
     id="path3348"
     inkscape:connector-curvature="0"
     style="fill:#0b5679"
     sodipodi:nodetypes="cccccccccccccccccccccccccc" />
  <path
     fill="#7ab3e8"
     d=" M 53.97 51.09 C 56.48 48.37 61.09 48.79 63.15 51.83 C 67.33 57.34 71.61 63.12 73.24 69.97 C 74.95 76.58 76.24 83.34 76.61 90.18 C 71.77 90.40 66.91 90.78 62.08 90.31 C 58.36 88.81 56.04 85.30 53.90 82.10 C 51.23 77.50 48.18 72.60 48.65 67.05 C 49.07 61.50 49.95 55.27 53.97 51.09 Z"
     id="path3350" />
  <path
     d=" M 95.13 51.19 C 98.86 55.60 99.27 61.53 100.25 66.98 C 100.95 71.05 100.87 75.20 100.63 79.32 C 99.34 69.83 96.12 60.72 95.13 51.19 Z"
     id="path3352"
     fill="#0b5679" />
  <path
     fill="#0b5679"
     d=" M 86.08 52.99 C 89.32 59.75 91.22 67.28 90.69 74.82 C 89.80 67.39 86.75 60.43 86.08 52.99 Z"
     id="path3354" />
  <path
     fill="#0b5679"
     d=" M 79.35 66.39 C 83.95 78.20 83.90 91.08 85.68 103.46 C 84.53 98.32 82.17 93.37 82.42 87.99 C 82.43 80.65 79.79 73.68 79.35 66.39 Z"
     id="path3356" />
  <path
     fill="#4499c5"
     d=" M 102.67 90.17 C 104.78 93.69 104.87 97.90 105.63 101.83 C 107.06 101.67 108.48 101.52 109.91 101.37 C 109.75 98.41 109.56 95.45 109.52 92.48 C 109.95 92.37 110.82 92.14 111.26 92.03 C 113.88 99.30 111.22 106.87 109.42 113.98 C 107.54 106.79 103.95 100.10 103.22 92.62 C 103.08 92.00 102.81 90.78 102.67 90.17 Z"
     id="path3362" />
  <path
     fill="#4499c5"
     d=" M 73.13 96.42 C 74.36 96.33 75.58 96.23 76.81 96.14 C 77.65 101.43 78.31 106.80 80.13 111.88 C 81.82 116.88 85.29 121.08 86.74 126.19 C 87.64 128.41 88.09 131.35 90.56 132.41 C 93.64 133.82 97.06 134.24 100.36 134.84 L 101.65 135.00 L 88.11 135.00 C 83.38 132.58 80.89 127.72 78.04 123.50 C 77.83 127.33 77.72 131.16 77.69 135.00 L 73.20 135.00 C 72.96 130.68 72.74 126.36 72.89 122.03 C 73.32 113.50 72.58 104.95 73.13 96.42 Z"
     id="path3366" />
  <path
     fill="#4499c5"
     d=" M 98.26 107.65 C 101.74 112.07 105.40 116.35 109.32 120.39 C 107.74 124.77 105.68 129.20 101.67 131.88 C 102.34 130.24 103.00 128.62 103.67 126.99 C 102.71 126.24 101.75 125.48 100.80 124.72 C 102.05 118.83 99.38 113.31 98.26 107.65 Z"
     id="path3368" />
  <path
     fill="#4499c5"
     d=" M 113.94 112.12 C 115.39 107.56 121.04 107.78 124.92 107.76 C 136.72 108.84 148.59 110.05 160.09 113.06 C 167.80 115.00 174.60 119.31 182.12 121.82 C 190.35 124.59 197.66 129.81 206.37 131.18 C 209.35 132.54 212.32 133.95 215.43 135.00 L 196.61 135.00 C 186.40 130.35 176.84 124.21 166.10 120.78 C 158.98 118.03 151.68 115.37 143.99 115.00 C 134.65 114.61 125.43 113.01 116.16 112.01 C 123.57 119.61 130.29 127.89 138.18 135.00 L 133.30 135.00 C 126.45 129.69 122.07 122.02 115.68 116.25 C 114.76 115.14 113.09 113.70 113.94 112.12 Z"
     id="path3370" />
  <path
     fill="#010102"
     d=" M 116.16 112.01 C 125.43 113.01 134.65 114.61 143.99 115.00 C 151.68 115.37 158.98 118.03 166.10 120.78 C 176.84 124.21 186.40 130.35 196.61 135.00 L 185.17 135.00 C 168.10 126.78 150.17 117.88 130.71 118.71 C 135.30 124.19 139.93 129.63 144.64 135.00 L 138.18 135.00 C 130.29 127.89 123.57 119.61 116.16 112.01 Z"
     id="path3372" />
  <path
     fill="#7ab3e8"
     d=" M 78.04 123.50 C 80.89 127.72 83.38 132.58 88.11 135.00 L 77.69 135.00 C 77.72 131.16 77.83 127.33 78.04 123.50 Z"
     id="path3376" />
  <path
     inkscape:connector-curvature="0"
     style="fill:#0b5679"
     d="m 94.405486,73.06387 c 2.171737,6.588887 2.657578,13.393065 3.917919,19.254824 0.982835,3.999289 4.226245,12.250506 5.188325,16.582636 -0.60288,-1.6364 -1.72624,-3.06027 -2.48318,-5.09466 -0.61423,-1.71649 -1.01502,-3.36507 -1.86558,-5.660459 C 98.75831,96.881695 98.424991,95.671736 97.98679,94.367108 96.775574,88.854674 96.422188,81.382756 94.405486,73.06387 Z"
     id="path3352-9"
     sodipodi:nodetypes="ccccccc" />
  <text
     xml:space="preserve"
     style="font-style:italic;font-weight:bold;font-size:64px;line-height:125%;font-family:sans-serif;letter-spacing:0px;word-spacing:0px;fill:#000000;fill-opacity:1;stroke:none;stroke-width:1px;stroke-linecap:butt;stroke-linejoin:miter;stroke-opacity:1;-inkscape-font-specification:'sans-serif Bold Italic';font-stretch:normal;font-variant:normal;"
     x="120.62842"
     y="21.467365"
     id="text3348"
     sodipodi:linespacing="125%"><tspan
       sodipodi:role="line"
       id="tspan3350"
       x="120.62842"
       y="21.467365" /></text>
  <text
     xml:space="preserve"
     style="font-style:normal;font-weight:normal;font-size:64px;line-height:125%;font-family:sans-serif;letter-spacing:0px;word-spacing:0px;fill:#000000;fill-opacity:1;stroke:none;stroke-width:1px;stroke-linecap:butt;stroke-linejoin:miter;stroke-opacity:1"
     x="141.05692"
     y="3.9024391"
     id="text3352"
     sodipodi:linespacing="125%"><tspan
       sodipodi:role="line"
       id="tspan3354"
       x="141.05692"
       y="3.9024391" /></text>
  <text
     xml:space="preserve"
     style="font-style:italic;font-variant:normal;font-weight:bold;font-stretch:normal;font-size:64px;line-height:125%;font-family:sans-serif;-inkscape-font-specification:'sans-serif Bold Italic';letter-spacing:0px;word-spacing:0px;fill:#4499c5;fill-opacity:1;stroke:none;stroke-width:1px;stroke-linecap:butt;stroke-linejoin:miter;stroke-opacity:1"
     x="112.19511"
     y="67.839134"
     id="text3356"
     sodipodi:linespacing="125%"><tspan
       sodipodi:role="line"
       id="tspan3358"
       x="112.19511"
       y="67.839134">5.1</tspan></text>
</svg>
