/* XPM */
static char *cin[] = {
/* width height ncolors chars_per_pixel */
"80 48 681 2",
/* colors */
"   c Black",
" . c #000101",
" X c #69AADC",
" o c #000202",
" O c #000203",
" + c #579FCD",
" @ c #000304",
" # c #000305",
" $ c #7D7D2B",
" % c #000405",
" & c #5881A7",
" * c #4595BB",
" = c #57A2BB",
" - c #5882A8",
" ; c #121206",
" : c #121207",
" > c #121208",
" , c #57A2D0",
" < c #346A80",
" 1 c #57A3CD",
" 2 c #4597C2",
" 3 c #4598C3",
" 4 c #354D62",
" 5 c #354D64",
" 6 c #346D88",
" 7 c #4599C4",
" 8 c #4599C5",
" 9 c #459AC4",
" 0 c #459AC5",
" q c #459AC6",
" w c #234357",
" e c #234451",
" r c #467FA4",
" t c #A1A13C",
" y c #347496",
" u c #363615",
" i c #6A9BC9",
" p c #121F22",
" a c #484819",
" s c #234E64",
" d c #234F66",
" f c #C5C54A",
" g c #468BB4",
" h c #122833",
" j c #6AA7D8",
" k c #589BC8",
" l c #010100",
" z c #010101",
" x c #010102",
" c c #010202",
" v c #010203",
" b c #6AABDD",
" n c #4694BF",
" m c #010406",
" M c #6AAFAF",
" N c #010507",
" B c #010508",
" V c #4696BD",
" C c #010608",
" Z c #010609",
" A c #5983AA",
" S c #131307",
" D c #131308",
" F c #58A3CF",
" G c #4697C2",
" H c #010709",
" J c #01070A",
" K c #58A5B9",
" L c #58A5BA",
" P c #01080B",
" I c #356D85",
" U c #01090C",
" Y c #01090D",
" T c #356E87",
" R c #469AC4",
" E c #469AC5",
" W c #244252",
" Q c #010A0E",
" ! c #010A0F",
" ~ c #364F64",
" ^ c #469BC3",
" / c #010B0F",
" ( c #010B10",
" ) c #25250E",
" _ c #252510",
" ` c #357391",
" ' c #B3D286",
" ] c #49491A",
" [ c #C5E27C",
" { c #245269",
" } c #020201",
" | c #020202",
".  c #020203",
".. c #6BABDE",
".X c #020303",
".o c #020304",
".O c #6BACDD",
".+ c #6BACDF",
".@ c #6BAEB1",
".# c #020405",
".$ c #4795BF",
".% c #020506",
".& c #020507",
".* c #59A2D1",
".= c #59A3CF",
".- c #59A3D1",
".; c #59A4BA",
".: c #5A84AB",
".> c #479AC2",
"., c #479AC3",
".< c #479AC6",
".1 c #479BC2",
".2 c #479BC3",
".3 c #479BC4",
".4 c #479BC5",
".5 c #020C11",
".6 c #020C12",
".7 c #26260E",
".8 c #375169",
".9 c #37516A",
".0 c #020D13",
".q c #020E14",
".w c #020F15",
".e c #367491",
".r c #021016",
".t c #021017",
".y c #021117",
".u c #021118",
".i c #254A5B",
".p c #021219",
".a c #02121A",
".s c #367799",
".d c #02131A",
".f c #02131B",
".g c #36799C",
".h c #14262D",
".j c #14262F",
".k c #496C8B",
".l c #488CB6",
".z c #5C5C23",
".x c #90C399",
".c c #90C59A",
".v c #6E6E28",
".b c #030301",
".n c Gray1",
".m c #6CAEB1",
".M c #030404",
".N c #030505",
".B c #030606",
".V c #030607",
".C c #80802C",
".Z c #030708",
".A c #5AA4D1",
".S c #151507",
".D c #5B85AD",
".F c #489BC6",
".G c #27270F",
".H c #377493",
".J c #377592",
".K c #151D23",
".L c #264A59",
".P c #4983AA",
".I c #377796",
".U c #393915",
".Y c #151F28",
".T c #03141C",
".R c #03151D",
".E c #03151E",
".W c #6D9FCF",
".Q c #03161F",
".! c #377B9E",
".~ c #031720",
".^ c #031721",
"./ c #031821",
".( c #031923",
".) c #031A24",
"._ c #031B26",
".` c #4A6C8C",
".' c #4A6D8D",
".] c #26556E",
".[ c #6DACE0",
".{ c #040403",
".} c #6DADDE",
".| c #6DADDF",
"X  c #6DADE0",
"X. c #4995C0",
"XX c #040505",
"Xo c #6DAEE0",
"XO c #040608",
"X+ c #ECEC55",
"X@ c #5BA4D1",
"X# c #040808",
"X$ c #5BA6B7",
"X% c #5BA6B8",
"X& c #161607",
"X* c #5C87B0",
"X= c #499BC3",
"X- c #499BC6",
"X; c #499CC1",
"X: c #4A7CA1",
"X> c #499CC2",
"X, c #499CC5",
"X< c #499CC8",
"X1 c #39546C",
"X2 c #A5A53E",
"X3 c #274C5B",
"X4 c #3A3A16",
"X5 c #3A3A18",
"X6 c #162029",
"X7 c #6EA1D1",
"X8 c #387EA1",
"X9 c #A4CC8E",
"X0 c #041C27",
"Xq c #041C28",
"Xw c #041D29",
"Xe c #4B6E8E",
"Xr c #4B6E8F",
"Xt c #4A8EB6",
"Xy c #4A8EB8",
"Xu c #5E5E24",
"Xi c #041E2B",
"Xp c #041F2B",
"Xa c #041F2C",
"Xs c #275871",
"Xd c #04202D",
"Xf c #80B9A2",
"Xg c #04222F",
"Xh c #042230",
"Xj c #042331",
"Xk c #6EADE0",
"Xl c #4A95C1",
"Xz c #050501",
"Xx c #050502",
"Xc c #5CA2D2",
"Xv c #050607",
"Xb c #050707",
"Xn c #050709",
"Xm c #5CA4D3",
"XM c #05080A",
"XN c #5CA5CF",
"XB c #5CA5D5",
"XV c #82822D",
"XC c #05090C",
"XZ c #5CA7B6",
"XA c #171709",
"XS c #5D88B0",
"XD c #4A9CC8",
"XF c #FFFF5C",
"XG c #EDF664",
"XH c #C9E07C",
"XJ c #172128",
"XK c #285061",
"XL c #397C9D",
"XP c #6FA2D2",
"XI c #397EA2",
"XU c #17282D",
"XY c #3980A5",
"XT c #93C498",
"XR c #81B8A1",
"XE c #DCDC4F",
"XW c #052332",
"XQ c #052432",
"X! c #6FAFAC",
"X~ c #6FAEE2",
"X^ c #052534",
"X/ c #060602",
"X( c #060603",
"X) c #060604",
"X_ c #060605",
"X` c #052636",
"X' c #060707",
"X] c #052737",
"X[ c #052838",
"X{ c #052839",
"X} c #173544",
"X| c #06090C",
"o  c #05293A",
"o. c #181809",
"oX c #052B3C",
"oo c #4B9CC1",
"oO c #4B9DC1",
"o+ c #060D0E",
"o@ c #5E8AB2",
"o# c #5E8AB3",
"o$ c #4B9EC1",
"o% c #060E13",
"o& c #2A2A0F",
"o* c #3A7895",
"o= c #18232D",
"o- c #B9B946",
"o; c #70A4D5",
"o: c #3A80A1",
"o> c #3A81A6",
"o, c #4D7192",
"o< c #295B75",
"o1 c #295C76",
"o2 c #70AEE2",
"o3 c #72722A",
"o4 c #70AFE2",
"o5 c #70B1AE",
"o6 c #070705",
"o7 c #5EA5D7",
"o8 c #5EA6D5",
"o9 c #183646",
"o0 c #070A0D",
"oq c #5EA8B5",
"ow c #070B0E",
"oe c #062B3D",
"or c #191909",
"ot c #19190A",
"oy c #4C9DC0",
"ou c #4C9DC1",
"oi c #062C3E",
"op c #4C9DC8",
"oa c #070D0F",
"os c #4C9EC0",
"od c #4C9EC1",
"of c #062D3F",
"og c #062D40",
"oh c #070E10",
"oj c #5F8BB4",
"ok c #062E41",
"ol c #070F11",
"oz c #5F8CB5",
"ox c #062F41",
"oc c #969634",
"ov c #063043",
"ob c #2B2B0F",
"on c #2B2B12",
"om c #063144",
"oM c #063145",
"oN c #063246",
"oB c #063247",
"oV c #063347",
"oC c #DDEE6F",
"oZ c #3D3D17",
"oA c #19232B",
"oS c #19242D",
"oD c #192530",
"oF c #71A6D7",
"oG c #71A6D8",
"oH c #071D25",
"oJ c #2A5669",
"oK c #3B84A9",
"oL c #CCCC4D",
"oP c #3B85AC",
"oI c #4E7395",
"oU c #4D94BF",
"oY c #71B0DC",
"oT c #71B2AB",
"oR c #080803",
"oE c #71B3AC",
"oW c #5FA6D1",
"oQ c #5FA7B7",
"o! c #5FA7D5",
"o~ c #080B0E",
"o^ c #85852E",
"o/ c #080C0E",
"o( c #193848",
"o) c #4D9DC9",
"o_ c #193949",
"o` c #4D9EC9",
"o' c #4D9FBF",
"o] c #080F11",
"o[ c #073348",
"o{ c #07354B",
"o} c #07364B",
"o| c #07374D",
"O  c #07384F",
"O. c #073950",
"OX c #1A2732",
"Oo c #72A7D9",
"OO c #72A8D9",
"O+ c #A8D18B",
"O@ c #1A2C37",
"O# c #3C85A7",
"O$ c #3C85AB",
"O% c #1A2E34",
"O& c #3C86AC",
"O* c #4F7496",
"O= c #84BBA2",
"O- c #3C88AE",
"O; c #3C88AF",
"O: c #84BDA5",
"O> c #72AFE2",
"O, c #090903",
"O< c #090904",
"O1 c #2B617D",
"O2 c #60A8B6",
"O3 c #090D0D",
"O4 c #090D11",
"O5 c #4E9EBF",
"O6 c #4E9EC0",
"O7 c #4E9EC9",
"O8 c #1A3A4B",
"O9 c #1B1B0A",
"O0 c #091012",
"Oq c #091116",
"Ow c #618EB9",
"Oe c #4F84A9",
"Or c #AAAA40",
"Ot c #3F3F17",
"Oy c #1B272F",
"Ou c #1B2731",
"Oi c #1B2733",
"Op c #083B53",
"Oa c #083B54",
"Os c #1B2834",
"Od c #083D56",
"Of c #51511B",
"Og c #083E57",
"Oh c #73A8DA",
"Oj c #083F59",
"Ok c #4F91BC",
"Ol c #08405B",
"Oz c #1B2D37",
"Ox c #08415B",
"Oc c #08415C",
"Ov c #08425D",
"Ob c #3D87AF",
"On c #4F96BE",
"Om c #1B3239",
"OM c #73AFDB",
"ON c #3D8AB1",
"OB c #73AFE3",
"OV c #73B0E3",
"OC c #4F98C5",
"OZ c #1B353F",
"OA c #61A8B5",
"OS c #61A7D7",
"OD c #61A8B6",
"OF c #61A8D2",
"OG c #4F9FBD",
"OH c #4F9FC0",
"OJ c #1C1C0A",
"OK c #4FA0BE",
"OL c #6290BB",
"OP c #2E2E13",
"OI c #3F5B71",
"OU c #BCD786",
"OY c #508CB6",
"OT c #3E819F",
"OR c #1C2936",
"OE c #74AADC",
"OW c #1C2E3C",
"OQ c #2D5B6D",
"O! c #09435E",
"O~ c #646424",
"O^ c #09445F",
"O/ c #094460",
"O( c #517699",
"O) c #3E8AB2",
"O_ c #86BEA0",
"O` c #51779A",
"O' c #51779B",
"O] c #094662",
"O[ c #74B0E4",
"O{ c #094764",
"O} c #094765",
"O| c #3E8CB5",
"+  c #2E4150",
"+. c #0B0B04",
"+X c #2E4458",
"+o c #1C3842",
"+O c #2D6583",
"++ c #509FBE",
"+@ c #88882F",
"+# c #0B0F0F",
"+$ c #50A0BF",
"+% c #1D1D0A",
"+& c #1D1D0C",
"+* c #0B1116",
"+= c #0B1517",
"+- c #0B1619",
"+; c #405E78",
"+: c #0B1A21",
"+> c #CFE778",
"+, c #75ABDE",
"+< c #75ACDF",
"+1 c #3F88A9",
"+2 c #75B0E4",
"+3 c #75B1E4",
"+4 c #63A8D7",
"+5 c #0C0C04",
"+6 c #0A4B69",
"+7 c #2F455A",
"+8 c #0A4C6B",
"+9 c #1D3944",
"+0 c #0A4D6C",
"+q c #0A4D6D",
"+w c #519FCB",
"+e c #0A4E6E",
"+r c #51A0BD",
"+t c #51A0CC",
"+y c #0A4F6F",
"+u c #0C1013",
"+i c #0A5070",
"+p c #0A5171",
"+a c #0A5172",
"+s c #0C1217",
"+d c #0A5273",
"+f c #1D4154",
"+g c #6492BD",
"+h c #0C1619",
"+j c #6493BE",
"+k c #6493BF",
"+l c #0C1B23",
"+z c #BFBF48",
"+x c #54541C",
"+c c #4087A6",
"+v c #76ADE0",
"+b c #9ACA95",
"+n c #88BDA3",
"+m c #666625",
"+M c #408BAD",
"+N c #76B1E6",
"+B c #2F6278",
"+V c #408EB4",
"+C c #408EB5",
"+Z c #64A8D9",
"+A c #64A8DA",
"+S c #0D0D04",
"+D c #0D0D06",
"+F c #1E3943",
"+G c #30465B",
"+H c #52A0BE",
"+J c #F5F558",
"+K c #52A1BE",
"+L c #52A1CB",
"+P c #1F1F0A",
"+I c #2F6A89",
"+U c #0B5274",
"+Y c #0D1319",
"+T c #0B5476",
"+R c #0B5477",
"+E c #0D1515",
"+W c #0B5577",
"+Q c #0B5578",
"+! c #0D1616",
"+~ c #0D1617",
"+^ c #0B5679",
"+/ c #313110",
"+( c #0D181D",
"+) c #6595C1",
"+_ c #F5FF62",
"+` c #42607D",
"+' c #4180A2",
"+] c #0D1C24",
"+[ c #434317",
"+{ c #42617E",
"+} c #555520",
"+| c #77AFE3",
"@  c #54799D",
"@. c #77B4A7",
"@X c #547B9F",
"@o c #E4E452",
"@O c #65A8D9",
"@+ c #547CA0",
"@@ c #30647C",
"@# c #65A9DA",
"@$ c #0E0E05",
"@% c #65ACB4",
"@& c #53A1BB",
"@* c #53A1BC",
"@= c #53A1CB",
"@- c #53A1CD",
"@; c #F6F668",
"@: c #53A2BC",
"@> c #1F3F4B",
"@, c #20200B",
"@< c #0E151B",
"@1 c #9D9D34",
"@2 c #323211",
"@3 c #1F4559",
"@4 c #435F79",
"@5 c #444418",
"@6 c #43627E",
"@7 c #0E2029",
"@8 c #AED389",
"@9 c #565621",
"@0 c #5495C0",
"@q c #78AFE3",
"@w c #78B0E4",
"@e c #686826",
"@r c #78B2E6",
"@t c #78B2E7",
"@y c #66A9DA",
"@u c #7A7A2B",
"@i c #0F0F05",
"@p c #54A1CD",
"@a c #32495C",
"@s c #4295BF",
"@d c #4295C0",
"@f c #8C8C31",
"@g c #21210B",
"@h c #E5ED6A",
"@j c #0F161D",
"@k c #6797C4",
"@l c #20475C",
"@z c #0F1C20",
"@x c #21303E",
"@c c #79B1E5",
"@v c #79B2E6",
"@b c #79B2E7",
"@n c #79B3E8",
"@m c #32637B",
"@M c #4390B4",
"@N c #67A9DA",
"@B c #4391B5",
"@V c #67ABB0",
"@C c #67AADC",
"@Z c #67AADD",
"@A c #567EA3",
"@S c #101006",
"@D c #4394BE",
"@F c #67AEB0",
"@G c #326980",
"@H c #55A3BC",
"@J c #21404B",
"@K c #4398C3",
"@L c #22220D",
"@P c #22220E",
"@I c #326E8E",
"@U c #21434F",
"@Y c #10171C",
"@T c #10171E",
"@R c #10181F",
"@E c #327192",
"@W c #101A1B",
"@Q c #343414",
"@! c #6898C5",
"@~ c #6899C6",
"@^ c #214A5F",
"@/ c #101F24",
"@( c #214B61",
"@) c #464618",
"@_ c #456583",
"@` c #456684",
"@' c #10232E",
"@] c #585821",
"@[ c #22323F",
"@{ c #5698C4",
"@} c #5699C5",
"@| c #D5D54D",
"#  c #7AB2E7",
"#. c #7AB3E4",
"#X c #6A6A26",
"#o c #7AB3E7",
"#O c #7AB3E8",
"#+ c #448FB9",
"#@ c #7AB7A5",
"## c #4491B7",
"#$ c #4491BA",
"#% c #577FA5",
"#& c #4493B8",
"#* c #68ADAF",
"#= c #4494B9",
"#- c #111108",
"#; c #56A2CE",
"#: c #336A83",
"#> c #4496C2",
"#, c #56A3BB",
"#< c #56A3BC",
"#1 c #4497C1",
"#2 c #56A4BA",
"#3 c #344C62",
"#4 c #4499C4",
"#5 c #4499C5",
"#6 c #449AC4",
"#7 c #111920",
"#8 c #353515",
"#9 c #353518",
"#0 c #699AC8",
"#q c #224C61",
"#w c #466786",
"#e c #9FCA8F",
"#r c #5796C2",
"#t c #595922",
"#y c #B1D883",
"#u c #233342",
"#i c #8DBF9B",
/* pixels */
"XFXFXFXFXF+P }  .b SXFXFXFXFXFXFXFXFXFXFXFXFXFXFXFXFXFXFXFXFXFXFXFXFXFXFXFXFXFXFXFXFXFXFXFXFXFXFXFXFXFXFXFXFXFXFXFXFXFXFXFXFXFXFXFXFXFXFXFXFXFXFXFXFXFXFXFXFXFXF",
"XF.z+.O<oR           fXFXFXFXFXFXFXFXFXFXFXFXFXFXFXFXFXFXFXFXFXFXFXFXFXFXFXFXFXFXFXFXFXFXFXFXFXFXFXFXFXFXFXFXFXFXFXFXFXFXFXFXFXFXFXFXFXFXFXFXFXFXFXFXFXFXFXFXFXF",
"XF :    .ZOW.9.'X|  ocXFXFXFXFXFXFXFXFXFXFXFXFXFXFXFXFXFXFXFXFXFXFXFXFXFXFXFXFXFXFXFXFXFXFXFXFXFXFXFXFXFXFXFXFXFXFXFXFXFXFXFXFXFXFXFXFXFXFXFXFXFXFXFXFXFXFXFXFXF",
"XFoR  @^@d r#OOO   lX+XFXFXFXFXFXFXFXFXFXFXFXFXFXFXFXFXFXFXFXFXFXFXFXFXFXFXFXFXFXFXFXFXFXFXFXFXFXFXFXFXFXFXFXFXFXFXFXFXFXFXFXFXFXFXFXFXFXFXFXFXFXFXFXFXFXFXFXFXF",
"XFoR  .]#5.P#Ooj  X/XFXFXFXFXFXFXFXFXFXFXFXFXFXFXFXFXFXFXFXFXFXFXFXFXFXFXFXFXFXFXFXFXFXFXFXFXFXFXFXFXFXFXFXFXFXFXFXFXFXFXFXFXFXFXFXFXFXFXFXFXFXFXFXFXFXFXFXFXFXF",
"XF+5  @(#5OY#OXr  @iXFXFXFXFXFXFXFXFXFXFXFXFXFXFXFXFXFXFXFXFXFXFXFXFXFXFXFXFXFXFXFXFXFXFXFXFXFXFXFXFXFXFXFXFXFXFXFXFXFXFXFXFXFXFXFXFXFXFXFXFXFXFXFXFXFXFXFXFXFXF",
"XFOJ  o_#5#r#O.8  @2XFXFXFXFXFXFXFXFXFXFXFXFXFXFXFXFXFXFXFXFXFXFXFXFXFXFXFXFXFXFXFXFXFXFXFXFXFXFXFXFXFXFXFXFXFXFXFXFXFXFXFXFXFXFXFXFXFXFXFXFXFXFXFXFXFXFXFXFXFXF",
"XF ]  +:#5@0#O#u l fXFXFXFXFXFXFXFXFXFXFXFXFXFXFXFXFXFXFXFXFXFXFXFXFXFXFXFXFXFXFXFXFXF#y = = = = = = = = = =oTXFXFXFXFXFXFXFXFXFXFXFXFXFXFXF#e@F L = = =XRXFXFXF",
"XF@o z  oPOk+|O4O<XFXFXFXFXFXFXFXFXFXFXFXFXFXFXFXFXFXFXFXFXFXFXFXFXFXFXFXFXFXFXFXFXFXF.@#5#5#5#5#5#5#5#5#5#5ODXFXFXFXFXFXFXFXFXFXFXFXFXF@& 0#5#5#5#5#5#5oEXFXFXF",
"XFXFO<  o<Xto#  +SXFXFXFXFXFXFXFXFXFXFXFXFXFXFXFXFXFXFXFXFXFXFXFXFXFXFXFXFXFXFXFXFXFXF#2#5#5#5#5#5#5#5#5#5#5O:XFXFXFXFXFXFXFXFXFXFXFXFXF.2#5#5#5#5#5#5#5 [XFXFXF",
"XFXF :   s g@+  +SXFXFXFXFXFXFXFXFXFXFXFXFXFXFXFXF@u@,@$+S@g+zXFXFXFXFXFXFXFXFXFXFXFXFou#5#5.2ososososososO6XGXFXFXFXFXFXFXFXFXFXFXFXFX9#5 RooO5#5#5#5.>XFXFXFXF",
"XFXFoR  O1 g@X  +.XFXFXFXFXFXFXFXFXFXFXFXFXF@o@2O<   O ( #   }o.+zXFXFXFXFXFXFXFXFXFXF.1#5#5+KXFXFXFXFXFXFXFXFXFXFXFXFXFXFXFXFXFXFXFXF [#eXFXFX%#5#5#5O5XFXFXFXF",
"XF@| l  .!.l@+  +.XFXFXFXFXFXFXF+z+}oZo&ot+. }  .to{+U+^+ToXog ZXz@9XFXFXFXFXFXFXFXFOU#5#5#5ODXF+_XFXFXFXFXFXFXFXFXFXFXFXFXFXFXFXFXFXFXFXFXFXF++#5#5#5 LXFXFXFXF",
"XF+[  .%@dXy@A  O<XFXFXFXFoLotXx         Y.EoeO/+^+^+^+^+^oNX0+6.R z@5XFXFXFXFXFXFXFo5#5#5#5 ^#4#5 7X>OAXFXFXFXFXFXFXFXFXFXFXFXFXFXFXFXFXFXFXFX=#5#5#5.mXFXFXFXF",
"XFOJ  @'#5@{#%  oRXFXFXFOroR OXwoMOc+6+T+Q+0O}+^+^+^+^+i+W+T Y.qO{.p }#XXFXFXFXFXFXF.;#5#5#5#5#5#5#5#5#5OGXFXFXFXFXFXFXFXFXFXFXFXFXFXFXFXFXF@h 7#5#5#5@8XFXFXFXF",
"XF+S  @3#5@N &  oRXFXFXEoR PO^+^+^OcXd ( o    ._+R+^+^+8.Q+yoB   JOd UO,XFXFXFXFXFXFO5#5#5#5 8#5#5#5#5#5#5@VXFXFXFXFXFXFXFXFXFXFXFXFXFXFXFXFXf#5#5#5 ^XFXFXFXFXF",
"XF.b  +O#5OB.:  X/XFXFO9 OO!+^+^O               o +^+^+^ / YO! Q   Bo    uXFXFXFXFXFOK KO_oCXFXH#2#5#5#5#5OHXFXFXFXFXFXFXFXFXFXFXFXFXFXFXFXFoq#5#5#5oyXFXFXFXFXF",
"+@    oP#$#O.D  X/XFXV lX[+^+^+^.R    +Y#3@x     .o oV+^Xg   #.~     P Q+SXFXFXFXFXFXFXFXFXFXFXFXFo$#5#5#5odXFXFXFXFXFXFXFXFXFXFXFXFXFXFXFXF+r#5#5#5@HXFXFXFXFXF",
"@)  .&@K k#OX*  XxXFOJ @+i+^+^+d o  @<oF#O#OX1       .O]Oa         C J   }+JXFXFXFXFXFXFXFXFXFXFXF++#5#5#5++XFXFXFXFXFXFXFXFXFXFXFXFXFXFXFXFX;#5#5#5#*XFXFXFXFXF",
"+/  +]#5O>#Oo#  XzXFoRX0+^+^+^Oj    #%#O#O#O@wOi      .(+U @.w .   .om    #tXFXFXFXFXFXFXFXFXFXFXG.3#5#5#5O2XFXFXFO+#@#@#@XTXFXFXFXFXFXFXF@;#6#5#5#5+bXFXFXFXFXF",
"@g  X}#+#O#Ooz  .bXF.bX{+^+^+^of  @j@v#O#O#O#O@~XM      Oc.( (.(    Ov O  @LXFXFX!o'O=XFXFXFXFoC+K#5#5#5 0 'XFXFXF@:#5#5#5#<XFXFXFXFXFXFXF+n#5#5#5 RXFXFXFXFXFXF",
"o.  #q@}#O#OOw  .bXF zoN+^+^+a.q  +X#O#O#O#O#O#O#w      ./oB  oi    o{.d  @SXFXF.;#5#5X>+H#,+$.>#5#5#5#5XZXFXFXFXFoO#5#5#5 MXFXFXFXT.3.3.3 0#5#5#5 0.3.3.3XZXFXF",
"@S  O1@O#O#OOL   }XF }o[+^+^Xq    @_#O#O#O#O#O#O@q#7      O.  ox    XhXh  O,XFXFO6#5#5#5#5#5#5#5#5#5#5#2XFXFXFXFXF E#5#5#5O+XFXFXF@%#5#5#5#5#5#5#5#5#5#5#5 MXFXF",
"+.  @IX #O#O+j   lXFXzof+^O{      O'#O#O#O#O#O#O#O@`     .Xp UXj B  .woB  .bXFXFoQX;#5#5#5#5#5#5#5o$@.XFXFXFXFXF.c#5#5#5.,XFXFXFXF@*#5#5#5#5#5#5#5#5#5#5#5X9XFXF",
"O,  .sXk#O#O@k   lXFoRX^+^Og      O`#O#O#O#O#O#O#OX7 x  .0 o.~.0.u   .o|    o-XFXFXFO+oTOAX$oq.mOUXFXFXFXFXFXFXF+>#i#i#i+bXFXFXFXFO+#i#i#i#i#i#i#i#i#i#i.xXFXFXF",
"X/  XIX #O#O i    +J@$.Q+^+e      +{#O#O#O#O#O#O#O#OX6  X0  .R  .r    oi    .zXFXFXFXFXFXFXFXFXFXFXFXFXFXFXFXFXFXFXFXFXFXFXFXFXFXFXFXFXFXFXFXFXFXFXFXFXFXFXFXFXF",
"Xz  oK.|#O#O.W    oLot H+^+^.u    Os#O#O#O#O#O#O#O#O+G  Xi Z.a   @ %  Xi    .UXFXFXFXFXFXFXFXFXFXFXFXFXFXFXFXFXFXFXFXFXFXFXFXFXFXFXFXFXFXFXFXFXFXFXFXFXFXFXFXFXF",
".b  O&.|#O#Oo;    X2@Q  +q+^o        A#O#O#O#O#O#O#OXe  .w./.u N   Q o.5     )XFXFXFXFXFXFXFXFXFXFXFXFXFXFXFXFXFXFXFXFXFXFXFXFXFXFXFXFXFXFXFXFXFXFXFXFXFXFXFXFXF",
" }  O-.|#O#OOO    +@@f  Od+^Ov      oD# #O#O#O#O#O#O+g   oXQ m.)   ..0      o.XFXFXFXFXFXFXFXFXFXFXFXFXFXFXFXFXFXFXFXFXFXFXFXFXFXFXFXFXFXFXFXFXFXFXFXFXFXFXFXFXF",
"    ONXk#O#O+v    o3XF.b.TX`of J      .`#O#O#O#O#O#OOh    X]  X[    .r      @SXFXFXFXFXFXFXFXFXFXFXFXFXFXFXFXFXFXFXFXFXFXFXFXFXFXFXFXFXFXFXFXFXFXFXFXFXFXFXFXFXF",
"    O)X #O#O@c    O~XForoR.b  XW  +.  Xn+)#O#O#O#O#O#Oo0  oi  o}    .y      X/@, ;O<oR+.o.OtXEXFXFXFXFXFXFXFXFXFXFXFXFXFXFXFXFXFXFXFXFXFXFXFXFXFXFXFXFXFXFXFXFXF",
" l  ObXk#O#O#O v  @]XFXFXFo&  O/ OotoR  +so##O#O#O#O#O.Y  ov  Op J  .p                       z+.@,O~XFXFXFXFXFXFXFXFXFXFXFXFXFXFXFXFXFXFXFXFXFXFXFXFXFXFXFXFXFXF",
" }  O$.[#O#O#OXO  OJob#8#8@g  OjoHX4o^X/   .@T@R.Y@R+*.o  o[ .oBX0  .T  +=   xOz@a@4OI+ OyXb        X/X&@]XFXFXFXFXFXFXFXFXFXFXFXFXFXFXFXFXFXFXFXFXFXFXFXFXFXFXF",
".b  o>.+#O#O#Oow                  Xz@S@gXz                X^ Po om  .0.w.hoh.BO7#O#O#O#O#O# +k+;XJ x      oR@Lo-XFXFXFXFXFXFXFXFXFXFXFXFXFXFXFXFXFXFXFXFXFXFXFXF",
"Xx  X8..#O#O#O+7@xORo=@R+*ow                       .@B@J  .r.pXwOc    Xp.BOZ  .F#O#O#O#O#O#O#O#O#OOo.koA z     }X& $XFXFXFXFXFXFXFXFXFXFXFXFXFXFXFXFXFXFXFXFXFXF",
"O,  .g@y#O#O#O#O#O#O#O#O#O#O#O+<#0O* 5OXow         v#5 T    .a.6+p    Xi  .j  X,#O#O#O#O#O#O#O#O#O#O#O#OX7@6+u     l ;.CXFXFXFXFXFXFXFXFXFXFXFXFXFXFXFXFXFXFXFXF",
"@i   yoU#O#O#O#O#O#O#O#O#O#O#O#O#O#O#O#O#OOEOo+`  .N#5+1     m  +a Q  .a !.L 2op#O#O#O#O#O#O#O#O#O#O#O#O#O#O@v@ .K     l.S@1XFXFXFXFXFXFXFXFXFXFXFXFXFXFXFXFXFXF",
"@,  @E#5Xc@b#O#O#O#O#O#O#O#O#O#O#O#O#O#O#O#O#O.'  X##5 2        Ox._    .f+-#5#;#O#O#O#O#O#O#O#O#O#O#O#O#O#O#O#O#Oo@oS     } )+JXFXFXFXFXFXFXFXFXFXFXFXFXFXFXFXF",
"Xu lo(O;#5 G.* bO[#O#O#O#O#O#O#O#O#O#O#O#O#O#OoI  XC#5#5@/      ovok .@z m  ##+Z#OXo.=@=@p.AOS@Z.|OV@b#O#O#O#O#O#O#O#O -@Y    oROfXFXFXFXFXFXFXFXFXFXFXFXFXFXFXF",
"XF@9X/.#O8XY#5#5#5 3.$XlOC +o7+A XXkOV@r#O#O#OO*  o+#5#5OQ      XaOl  OTO0  @mo4.O+C@D#5#5#5#5#5#5#5#5X<+wX@@CO[#O#O#O#O@vo,o/     : tXFXFXFXFXFXFXFXFXFXFXFXFXF",
"XFXFoLo. l  @7 d+IXYO|#5#5#5#5#5#5#5#5#5#> nX.X:  oa#5#5#=      .q+U O <@M.N+(#O+4o:.MXX+# pOm eoJ#:XL+V#5#5#5#5.< F b@b#O#O+, ~ c   }.GXFXFXFXFXFXFXFXFXFXFXFXF",
"XFXFXFXF $ S.b         co%+l ho9+f@l {Xso1o1o1 w  oh#5#5#5+o     .+y.T+o#5+c.XoG#o@-.I.n x x x x x x x x. O3O%@@@s#5#5X-o!+N#O#O@!Ou    O<@eXFXFXFXFXFXFXFXFXFXF",
"XFXFXFXFXFXFXF+x ) SO,.b                          o]#5#5#5#& .    .^X^+h#5#5+'XS#O@n+t 6 | xX)@5X5OP+& Do6 x x x.MXU 6@K#5 q.-o2#O#Oo,Xv   lOJXEXFXFXFXFXFXFXFXF",
"XFXFXFXFXFXFXFXFXFXFXFXFX+ $Of uob@LOJo. ;+SoR.b  o]#5#5#5#5@>       O+-#5#5XmOE#O#O@to)+B x x >XFXFXFXFXFo-@Q#-.n x xX'+FO##5#5o`@#@tXP@[    X/ aXFXFXFXFXFXFXF",
"XFXFXFXFXFXFXFXFXFXFXFXFXFXFXFXFXFXFXFXFXFXFXF+%  XC#5 1+L#5+M        o+ * 8O[#O#O#O#O+3.FoJ x x+&XFXFXFXFXFXFXFX+#9+D x x x@W.H#5#5 EXB+2O(o~     : tXFXFXFXFXF",
"XFXFXFXFXFXFXFXFXFXFXFXFXFXFXFXFXFXFXFXFXFXFXF@,  .V#5XN#. q#5Oq         Wo8#O#O#O#O#O#OX~ 0.i x xOPXFXFXFXFXFXFXFXFXF+mXA.n x x+~ `#5#5 0 , j 4 z   } )+JXFXFXF",
"XFXFXFXFXFXFXFXFXFXFXFXFXFXFXFXFXFXFXFXFXFXFXF@P   x#5oW#OoY#5o* .      Oe#o#O#O#O#O#O#O#O.} 9X3 x |@)XFXFXFXFXFXFXFXFXFXF f _X( x x+!.e#5#5#5XDOn@U c  X(oZXFXF",
"XFXFXFXFXFXFXFXFXFXFXFXFXFXFXFXFXFXFXFXFXFXFXF.7    #5OF#O#OOM.4 V I+9O@@c#O#O#O#O#O#O#O#O#OXk.<XK x.{.vXFXFXFXFXFXFXFXFXFXFXFX+onX_ x x+E.J#5#5#5#5#1@Gol  +.+x"
};
